<svg viewBox="0 0 720 580" xmlns="http://www.w3.org/2000/svg" font-family="system-ui, -apple-system, sans-serif">
  <title>Privacy Compliance Skills — Arquitectura del Repositorio</title>
  <desc>Diagrama de tres capas: Consumers arriba, Skills en el medio, y Knowledge Base abajo</desc>

  <rect width="720" height="580" fill="#f8f9fa" rx="12"/>
  <text x="360" y="32" text-anchor="middle" font-size="14" font-weight="700" fill="#1a1a1a" textLength="660" lengthAdjust="spacingAndGlyphs">Privacy Compliance Skills — Arquitectura del Repositorio</text>

  <!-- Layer labels -->
  <text x="14" y="105" font-size="9" font-weight="600" fill="#888" transform="rotate(-90,14,105)" text-anchor="middle">CONSUMERS</text>
  <text x="14" y="285" font-size="9" font-weight="600" fill="#888" transform="rotate(-90,14,285)" text-anchor="middle">SKILLS LAYER</text>
  <text x="14" y="455" font-size="9" font-weight="600" fill="#888" transform="rotate(-90,14,455)" text-anchor="middle">KNOWLEDGE</text>

  <!-- LAYER 1: CONSUMERS -->
  <rect x="30" y="50" width="660" height="110" rx="10" fill="#eef2f7" stroke="#d0d7e0" stroke-width="1"/>
  <text x="360" y="68" text-anchor="middle" font-size="10" font-weight="600" fill="#555">CAPA DE CONSUMIDORES</text>

  <rect x="50" y="78" width="150" height="68" rx="8" fill="#ddeeff" stroke="#4A90D9" stroke-width="1.5"/>
  <text x="125" y="100" text-anchor="middle" font-size="20">👨‍💻</text>
  <text x="125" y="118" text-anchor="middle" font-size="10" font-weight="600" fill="#2c5f8a">Dev / Arquitecto</text>
  <text x="125" y="132" text-anchor="middle" font-size="9" fill="#666">Lee docs Markdown</text>

  <rect x="220" y="78" width="150" height="68" rx="8" fill="#ddeeff" stroke="#4A90D9" stroke-width="1.5"/>
  <text x="295" y="100" text-anchor="middle" font-size="20">🚀</text>
  <text x="295" y="118" text-anchor="middle" font-size="10" font-weight="600" fill="#2c5f8a">Startup / CTO</text>
  <text x="295" y="132" text-anchor="middle" font-size="9" fill="#666">Auto-evaluación de riesgo</text>

  <rect x="390" y="78" width="150" height="68" rx="8" fill="#ede8f7" stroke="#7B4FBF" stroke-width="1.5"/>
  <text x="465" y="100" text-anchor="middle" font-size="20">🤖</text>
  <text x="465" y="118" text-anchor="middle" font-size="10" font-weight="600" fill="#4a2a80">Claude / LLM Agent</text>
  <text x="465" y="132" text-anchor="middle" font-size="9" fill="#666">Auditor autónomo de código</text>

  <rect x="560" y="78" width="118" height="68" rx="8" fill="#e8f7ef" stroke="#2DAA6A" stroke-width="1.5" stroke-dasharray="4,3"/>
  <text x="619" y="100" text-anchor="middle" font-size="20">⚡</text>
  <text x="619" y="118" text-anchor="middle" font-size="10" font-weight="600" fill="#1a6b42">API Futura</text>
  <text x="619" y="132" text-anchor="middle" font-size="9" fill="#666">Legal Risk Score</text>

  <!-- Arrows down -->
  <defs>
    <marker id="arr" markerWidth="8" markerHeight="6" refX="6" refY="3" orient="auto"><path d="M0,0 L0,6 L8,3 z" fill="#b0bac8"/></marker>
    <marker id="arr-p" markerWidth="8" markerHeight="6" refX="6" refY="3" orient="auto"><path d="M0,0 L0,6 L8,3 z" fill="#7B4FBF"/></marker>
    <marker id="arr-g" markerWidth="8" markerHeight="6" refX="6" refY="3" orient="auto"><path d="M0,0 L0,6 L8,3 z" fill="#2DAA6A"/></marker>
    <marker id="arr-r" markerWidth="8" markerHeight="6" refX="6" refY="3" orient="auto"><path d="M0,0 L0,6 L8,3 z" fill="#D94A4A"/></marker>
  </defs>
  <line x1="125" y1="160" x2="200" y2="195" stroke="#b0bac8" stroke-width="1.5" marker-end="url(#arr)"/>
  <line x1="295" y1="160" x2="295" y2="195" stroke="#b0bac8" stroke-width="1.5" marker-end="url(#arr)"/>
  <line x1="465" y1="160" x2="400" y2="195" stroke="#7B4FBF" stroke-width="1.5" opacity="0.7" marker-end="url(#arr-p)"/>
  <line x1="619" y1="160" x2="530" y2="195" stroke="#2DAA6A" stroke-width="1.5" opacity="0.6" stroke-dasharray="4,3" marker-end="url(#arr-g)"/>

  <!-- LAYER 2: SKILLS -->
  <rect x="30" y="195" width="660" height="130" rx="10" fill="#eef2f7" stroke="#d0d7e0" stroke-width="1"/>
  <text x="360" y="213" text-anchor="middle" font-size="10" font-weight="600" fill="#555">SKILLS LAYER — Claude Plugin (.claude-plugin/ + skills/)</text>

  <!-- Skills -->
  <rect x="45" y="221" width="118" height="90" rx="7" fill="white" stroke="#7B4FBF" stroke-width="1.5"/>
  <text x="104" y="244" text-anchor="middle" font-size="18">🗂️</text>
  <text x="104" y="263" text-anchor="middle" font-size="9.5" font-weight="600" fill="#4a2a80">clasificar-datos</text>
  <text x="104" y="277" text-anchor="middle" font-size="8.5" fill="#666">Público / Personal /</text>
  <text x="104" y="289" text-anchor="middle" font-size="8.5" fill="#666">Sensible por país</text>
  <text x="104" y="304" text-anchor="middle" font-size="8" fill="#7B4FBF">SKILL.md</text>

  <rect x="174" y="221" width="118" height="90" rx="7" fill="white" stroke="#7B4FBF" stroke-width="1.5"/>
  <text x="233" y="244" text-anchor="middle" font-size="18">🔍</text>
  <text x="233" y="263" text-anchor="middle" font-size="9.5" font-weight="600" fill="#4a2a80">privacy-check</text>
  <text x="233" y="277" text-anchor="middle" font-size="8.5" fill="#666">Compliance de un</text>
  <text x="233" y="289" text-anchor="middle" font-size="8.5" fill="#666">feature / producto</text>
  <text x="233" y="304" text-anchor="middle" font-size="8" fill="#7B4FBF">SKILL.md</text>

  <rect x="303" y="221" width="118" height="90" rx="7" fill="white" stroke="#D94A4A" stroke-width="1.8"/>
  <text x="362" y="244" text-anchor="middle" font-size="18">⚖️</text>
  <text x="362" y="263" text-anchor="middle" font-size="9.5" font-weight="700" fill="#8a2c2c">risk-score</text>
  <text x="362" y="277" text-anchor="middle" font-size="8.5" fill="#666">Calcula puntaje</text>
  <text x="362" y="289" text-anchor="middle" font-size="8.5" fill="#666">🟢🟡🔴 0–100 pts</text>
  <text x="362" y="304" text-anchor="middle" font-size="8" fill="#D94A4A">★ skill central</text>

  <rect x="432" y="221" width="118" height="90" rx="7" fill="white" stroke="#7B4FBF" stroke-width="1.5"/>
  <text x="491" y="244" text-anchor="middle" font-size="18">🌎</text>
  <text x="491" y="263" text-anchor="middle" font-size="9.5" font-weight="600" fill="#4a2a80">matriz-normativa</text>
  <text x="491" y="277" text-anchor="middle" font-size="8.5" fill="#666">LATAM vs GDPR</text>
  <text x="491" y="289" text-anchor="middle" font-size="8.5" fill="#666">vs CCPA</text>
  <text x="491" y="304" text-anchor="middle" font-size="8" fill="#7B4FBF">SKILL.md</text>

  <rect x="561" y="221" width="118" height="90" rx="7" fill="white" stroke="#7B4FBF" stroke-width="1.5"/>
  <text x="620" y="244" text-anchor="middle" font-size="18">📋</text>
  <text x="620" y="263" text-anchor="middle" font-size="9.5" font-weight="600" fill="#4a2a80">derechos-usuario</text>
  <text x="620" y="277" text-anchor="middle" font-size="8.5" fill="#666">ARCO / ARSOP /</text>
  <text x="620" y="289" text-anchor="middle" font-size="8.5" fill="#666">Portabilidad</text>
  <text x="620" y="304" text-anchor="middle" font-size="8" fill="#7B4FBF">SKILL.md</text>

  <!-- Arrows to knowledge -->
  <line x1="104" y1="325" x2="200" y2="362" stroke="#b0bac8" stroke-width="1.2" marker-end="url(#arr)"/>
  <line x1="233" y1="325" x2="270" y2="362" stroke="#b0bac8" stroke-width="1.2" marker-end="url(#arr)"/>
  <line x1="362" y1="325" x2="362" y2="362" stroke="#D94A4A" stroke-width="2" marker-end="url(#arr-r)"/>
  <line x1="491" y1="325" x2="450" y2="362" stroke="#b0bac8" stroke-width="1.2" marker-end="url(#arr)"/>
  <line x1="620" y1="325" x2="530" y2="362" stroke="#b0bac8" stroke-width="1.2" marker-end="url(#arr)"/>

  <!-- LAYER 3: KNOWLEDGE -->
  <rect x="30" y="362" width="660" height="120" rx="10" fill="#eef2f7" stroke="#d0d7e0" stroke-width="1"/>
  <text x="360" y="380" text-anchor="middle" font-size="10" font-weight="600" fill="#555">KNOWLEDGE BASE — Fuente de verdad editorial</text>

  <rect x="45" y="388" width="155" height="82" rx="7" fill="white" stroke="#D94A4A" stroke-width="1.8"/>
  <text x="122" y="407" text-anchor="middle" font-size="9.5" font-weight="700" fill="#8a2c2c">rules/ (JSON Semántico)</text>
  <text x="122" y="422" text-anchor="middle" font-size="8.5" fill="#666">colombia.json  brasil.json</text>
  <text x="122" y="436" text-anchor="middle" font-size="8.5" fill="#666">mexico.json  gdpr.json</text>
  <text x="122" y="450" text-anchor="middle" font-size="8.5" fill="#666">score-formula.json</text>
  <text x="122" y="464" text-anchor="middle" font-size="8" fill="#D94A4A">RAG-Ready · API-Ready</text>

  <rect x="215" y="388" width="150" height="82" rx="7" fill="white" stroke="#4A90D9" stroke-width="1.5"/>
  <text x="290" y="407" text-anchor="middle" font-size="9.5" font-weight="600" fill="#2c5f8a">matrices/ (Markdown)</text>
  <text x="290" y="422" text-anchor="middle" font-size="8.5" fill="#666">comparativa-consentimiento</text>
  <text x="290" y="436" text-anchor="middle" font-size="8.5" fill="#666">comparativa-derechos</text>
  <text x="290" y="450" text-anchor="middle" font-size="8.5" fill="#666">comparativa-sanciones</text>
  <text x="290" y="464" text-anchor="middle" font-size="8" fill="#4A90D9">Legible por humanos</text>

  <rect x="380" y="388" width="145" height="82" rx="7" fill="white" stroke="#4A90D9" stroke-width="1.5"/>
  <text x="452" y="407" text-anchor="middle" font-size="9.5" font-weight="600" fill="#2c5f8a">checklists/ (Markdown)</text>
  <text x="452" y="422" text-anchor="middle" font-size="8.5" fill="#666">checklist-startup</text>
  <text x="452" y="436" text-anchor="middle" font-size="8.5" fill="#666">checklist-api-design</text>
  <text x="452" y="450" text-anchor="middle" font-size="8.5" fill="#666">checklist-datos-sensibles</text>
  <text x="452" y="464" text-anchor="middle" font-size="8" fill="#4A90D9">Accionable por devs</text>

  <rect x="540" y="388" width="140" height="82" rx="7" fill="white" stroke="#7B4FBF" stroke-width="1.5"/>
  <text x="610" y="407" text-anchor="middle" font-size="9.5" font-weight="600" fill="#4a2a80">prompts/ (Markdown)</text>
  <text x="610" y="422" text-anchor="middle" font-size="8.5" fill="#666">auditor-privacidad</text>
  <text x="610" y="436" text-anchor="middle" font-size="8.5" fill="#666">linter-legal</text>
  <text x="610" y="450" text-anchor="middle" font-size="8.5" fill="#666">system-prompts/</text>
  <text x="610" y="464" text-anchor="middle" font-size="8" fill="#7B4FBF">Consumido por IA</text>

  <!-- Editorial note -->
  <rect x="200" y="497" width="320" height="28" rx="6" fill="#e8f7ef" stroke="#2DAA6A" stroke-width="1"/>
  <text x="360" y="516" text-anchor="middle" font-size="9.5" fill="#1a6b42">✍️ Knowledge Base curada por el Equipo Editorial (Abogado Experto)</text>
</svg>
